<mxfile host="app.diagrams.net" agent="Mozilla/5.0 (Macintosh; Intel Mac OS X 10_15_7) AppleWebKit/537.36 (KHTML, like Gecko) Chrome/140.0.0.0 Safari/537.36" version="28.2.4">
  <diagram id="LhVTmfn_bVOVVTIXNYQG" name="Page-1">
    <mxGraphModel dx="976" dy="565" grid="1" gridSize="10" guides="1" tooltips="1" connect="1" arrows="1" fold="1" page="1" pageScale="1" pageWidth="850" pageHeight="1100" math="0" shadow="0">
      <root>
        <mxCell id="0" />
        <mxCell id="1" parent="0" />
        <mxCell id="cI6oqYdS22LNSh7-TDvw-1" value="" style="swimlane;startSize=0;" parent="1" vertex="1">
          <mxGeometry x="160" y="270" width="320" height="120" as="geometry" />
        </mxCell>
        <mxCell id="cI6oqYdS22LNSh7-TDvw-18" style="edgeStyle=orthogonalEdgeStyle;rounded=0;orthogonalLoop=1;jettySize=auto;html=1;exitX=0;exitY=0.5;exitDx=0;exitDy=0;entryX=1;entryY=0.5;entryDx=0;entryDy=0;" parent="cI6oqYdS22LNSh7-TDvw-1" source="cI6oqYdS22LNSh7-TDvw-9" target="cI6oqYdS22LNSh7-TDvw-10" edge="1">
          <mxGeometry relative="1" as="geometry" />
        </mxCell>
        <mxCell id="cI6oqYdS22LNSh7-TDvw-9" value="Precomputed PYMK" style="rounded=1;whiteSpace=wrap;html=1;" parent="cI6oqYdS22LNSh7-TDvw-1" vertex="1">
          <mxGeometry x="200" y="40" width="80" height="40" as="geometry" />
        </mxCell>
        <mxCell id="cI6oqYdS22LNSh7-TDvw-10" value="PYMK service" style="rounded=1;whiteSpace=wrap;html=1;" parent="cI6oqYdS22LNSh7-TDvw-1" vertex="1">
          <mxGeometry x="40" y="40" width="80" height="40" as="geometry" />
        </mxCell>
        <mxCell id="cI6oqYdS22LNSh7-TDvw-15" value="Prediction pipeline" style="text;html=1;align=center;verticalAlign=middle;whiteSpace=wrap;rounded=0;" parent="cI6oqYdS22LNSh7-TDvw-1" vertex="1">
          <mxGeometry x="200" width="120" height="40" as="geometry" />
        </mxCell>
        <mxCell id="cI6oqYdS22LNSh7-TDvw-2" value="" style="swimlane;startSize=0;" parent="1" vertex="1">
          <mxGeometry x="160" y="440" width="320" height="360" as="geometry" />
        </mxCell>
        <mxCell id="cI6oqYdS22LNSh7-TDvw-20" style="edgeStyle=orthogonalEdgeStyle;rounded=0;orthogonalLoop=1;jettySize=auto;html=1;exitX=0.5;exitY=1;exitDx=0;exitDy=0;entryX=0.5;entryY=0;entryDx=0;entryDy=0;" parent="cI6oqYdS22LNSh7-TDvw-2" source="cI6oqYdS22LNSh7-TDvw-3" target="cI6oqYdS22LNSh7-TDvw-4" edge="1">
          <mxGeometry relative="1" as="geometry" />
        </mxCell>
        <mxCell id="cI6oqYdS22LNSh7-TDvw-3" value="GNN model" style="rounded=1;whiteSpace=wrap;html=1;" parent="cI6oqYdS22LNSh7-TDvw-2" vertex="1">
          <mxGeometry x="200" y="40" width="80" height="40" as="geometry" />
        </mxCell>
        <mxCell id="cI6oqYdS22LNSh7-TDvw-21" style="edgeStyle=orthogonalEdgeStyle;rounded=0;orthogonalLoop=1;jettySize=auto;html=1;exitX=0.5;exitY=0;exitDx=0;exitDy=0;entryX=0.5;entryY=1;entryDx=0;entryDy=0;" parent="cI6oqYdS22LNSh7-TDvw-2" source="cI6oqYdS22LNSh7-TDvw-4" target="cI6oqYdS22LNSh7-TDvw-3" edge="1">
          <mxGeometry relative="1" as="geometry" />
        </mxCell>
        <mxCell id="cI6oqYdS22LNSh7-TDvw-4" value="Scoring service" style="rounded=1;whiteSpace=wrap;html=1;" parent="cI6oqYdS22LNSh7-TDvw-2" vertex="1">
          <mxGeometry x="200" y="120" width="80" height="40" as="geometry" />
        </mxCell>
        <mxCell id="cI6oqYdS22LNSh7-TDvw-23" style="edgeStyle=orthogonalEdgeStyle;rounded=0;orthogonalLoop=1;jettySize=auto;html=1;exitX=0.5;exitY=0;exitDx=0;exitDy=0;entryX=0.5;entryY=1;entryDx=0;entryDy=0;" parent="cI6oqYdS22LNSh7-TDvw-2" source="cI6oqYdS22LNSh7-TDvw-5" target="cI6oqYdS22LNSh7-TDvw-4" edge="1">
          <mxGeometry relative="1" as="geometry" />
        </mxCell>
        <mxCell id="cI6oqYdS22LNSh7-TDvw-5" value="Feature computation" style="rounded=1;whiteSpace=wrap;html=1;" parent="cI6oqYdS22LNSh7-TDvw-2" vertex="1">
          <mxGeometry x="200" y="200" width="80" height="40" as="geometry" />
        </mxCell>
        <mxCell id="cI6oqYdS22LNSh7-TDvw-22" style="edgeStyle=orthogonalEdgeStyle;rounded=0;orthogonalLoop=1;jettySize=auto;html=1;exitX=1;exitY=0.5;exitDx=0;exitDy=0;entryX=0;entryY=0.5;entryDx=0;entryDy=0;" parent="cI6oqYdS22LNSh7-TDvw-2" source="cI6oqYdS22LNSh7-TDvw-6" target="cI6oqYdS22LNSh7-TDvw-4" edge="1">
          <mxGeometry relative="1" as="geometry" />
        </mxCell>
        <mxCell id="cI6oqYdS22LNSh7-TDvw-6" value="FoF service" style="rounded=1;whiteSpace=wrap;html=1;" parent="cI6oqYdS22LNSh7-TDvw-2" vertex="1">
          <mxGeometry x="40" y="120" width="80" height="40" as="geometry" />
        </mxCell>
        <mxCell id="cI6oqYdS22LNSh7-TDvw-24" style="edgeStyle=orthogonalEdgeStyle;rounded=0;orthogonalLoop=1;jettySize=auto;html=1;exitX=0.5;exitY=0;exitDx=0;exitDy=0;entryX=0.5;entryY=1;entryDx=0;entryDy=0;" parent="cI6oqYdS22LNSh7-TDvw-2" source="cI6oqYdS22LNSh7-TDvw-7" target="cI6oqYdS22LNSh7-TDvw-5" edge="1">
          <mxGeometry relative="1" as="geometry" />
        </mxCell>
        <mxCell id="cI6oqYdS22LNSh7-TDvw-7" value="Data lake" style="rounded=1;whiteSpace=wrap;html=1;" parent="cI6oqYdS22LNSh7-TDvw-2" vertex="1">
          <mxGeometry x="200" y="280" width="80" height="40" as="geometry" />
        </mxCell>
        <mxCell id="cI6oqYdS22LNSh7-TDvw-8" value="Generation pipeline" style="text;html=1;align=center;verticalAlign=middle;whiteSpace=wrap;rounded=0;" parent="cI6oqYdS22LNSh7-TDvw-2" vertex="1">
          <mxGeometry width="160" height="40" as="geometry" />
        </mxCell>
        <mxCell id="cI6oqYdS22LNSh7-TDvw-16" style="edgeStyle=orthogonalEdgeStyle;rounded=0;orthogonalLoop=1;jettySize=auto;html=1;exitX=0.5;exitY=1;exitDx=0;exitDy=0;" parent="1" source="cI6oqYdS22LNSh7-TDvw-14" target="cI6oqYdS22LNSh7-TDvw-10" edge="1">
          <mxGeometry relative="1" as="geometry" />
        </mxCell>
        <mxCell id="cI6oqYdS22LNSh7-TDvw-14" value="User" style="rounded=1;whiteSpace=wrap;html=1;" parent="1" vertex="1">
          <mxGeometry x="200" y="190" width="80" height="40" as="geometry" />
        </mxCell>
        <mxCell id="cI6oqYdS22LNSh7-TDvw-17" style="edgeStyle=orthogonalEdgeStyle;rounded=0;orthogonalLoop=1;jettySize=auto;html=1;exitX=0.5;exitY=0;exitDx=0;exitDy=0;" parent="1" source="cI6oqYdS22LNSh7-TDvw-10" target="cI6oqYdS22LNSh7-TDvw-14" edge="1">
          <mxGeometry relative="1" as="geometry" />
        </mxCell>
        <mxCell id="pHbQ7nHbS96mXQ4z9Htq-1" style="edgeStyle=orthogonalEdgeStyle;rounded=0;orthogonalLoop=1;jettySize=auto;html=1;exitX=1;exitY=0.5;exitDx=0;exitDy=0;entryX=1;entryY=0.5;entryDx=0;entryDy=0;" edge="1" parent="1" source="cI6oqYdS22LNSh7-TDvw-4" target="cI6oqYdS22LNSh7-TDvw-9">
          <mxGeometry relative="1" as="geometry" />
        </mxCell>
        <mxCell id="pHbQ7nHbS96mXQ4z9Htq-2" style="edgeStyle=orthogonalEdgeStyle;rounded=0;orthogonalLoop=1;jettySize=auto;html=1;exitX=0.5;exitY=1;exitDx=0;exitDy=0;entryX=0.5;entryY=0;entryDx=0;entryDy=0;" edge="1" parent="1" source="cI6oqYdS22LNSh7-TDvw-10" target="cI6oqYdS22LNSh7-TDvw-2">
          <mxGeometry relative="1" as="geometry">
            <Array as="points">
              <mxPoint x="240" y="410" />
              <mxPoint x="320" y="410" />
            </Array>
          </mxGeometry>
        </mxCell>
      </root>
    </mxGraphModel>
  </diagram>
</mxfile>
